<?xml version="1.0" encoding="utf-8"?>
<!-- Generator: Adobe Illustrator 22.0.1, SVG Export Plug-In . SVG Version: 6.00 Build 0)  -->
<svg version="1.1" id="comiXology" xmlns="http://www.w3.org/2000/svg" xmlns:xlink="http://www.w3.org/1999/xlink" x="0px" y="0px"
	 viewBox="0 0 150 60" style="enable-background:new 0 0 150 60;" xml:space="preserve">
<g>
	<g>
		<g>
			<g>
				<defs>
					<path fill="white" id="SVGID_1_" d="M10.4,23.5c-0.9,0.4-1.7,0.9-2.4,1.6l0,0c-0.6,0.7-1.2,1.5-1.5,2.3l0,0C6.2,28.2,6,29.1,6,30.1l0,0
						c0,2.1,0.7,3.8,2.2,5.2l0,0c0.7,0.6,1.5,1.1,2.4,1.5l0,0c0.9,0.4,1.8,0.5,2.7,0.5l0,0c0.6,0,1.1,0,1.6-0.1l0,0
						c0.5-0.1,1-0.3,1.6-0.5l0,0v-4.3c-0.3,0.4-0.8,0.8-1.3,1.1l0,0c-0.6,0.2-1.1,0.3-1.7,0.3l0,0c-1.1,0-2-0.3-2.7-1l0,0
						c-0.6-0.7-1-1.6-1-2.7l0,0c0-1.1,0.3-2,1-2.7l0,0c0.6-0.7,1.5-1.1,2.6-1.1l0,0c0.6,0,1.2,0.1,1.8,0.4l0,0
						c0.5,0.2,1,0.6,1.3,1.1l0,0v-4.2c-1-0.5-2.1-0.7-3.2-0.7l0,0C12.2,22.9,11.3,23,10.4,23.5"/>
				</defs>
				<use xlink:href="#SVGID_1_"  style="overflow:visible;"/>
				<clipPath id="SVGID_2_">
					<use xlink:href="#SVGID_1_"  style="overflow:visible;"/>
				</clipPath>
			</g>
			<g>
				<defs>
					<path fill="white" id="SVGID_3_" d="M23.6,33.4c-0.6-0.3-1-0.8-1.4-1.4l0,0c-0.3-0.6-0.5-1.3-0.6-2.1l0,0c0-0.6,0.2-1.2,0.6-1.8l0,0
						c0.3-0.5,0.8-1,1.4-1.3l0,0c0.6-0.3,1.2-0.5,1.9-0.5l0,0c0.7,0,1.4,0.2,1.9,0.5l0,0c0.6,0.3,1,0.8,1.4,1.3l0,0
						c0.3,0.6,0.5,1.2,0.5,1.8l0,0c0,0.8-0.1,1.5-0.5,2.1l0,0c-0.4,0.7-0.9,1.1-1.4,1.4l0,0c-0.6,0.3-1.2,0.5-1.9,0.6l0,0
						C24.8,33.9,24.2,33.7,23.6,33.4 M21.8,23.7c-1.1,0.6-2,1.4-2.8,2.5l0,0c-0.7,1-1,2.3-1.1,3.7l0,0c0,1.5,0.3,2.8,1,3.9l0,0
						c0.6,1.1,1.5,2,2.6,2.6l0,0c1.2,0.6,2.5,1,3.9,1l0,0c1.5,0,2.8-0.3,3.9-1l0,0c1.2-0.6,2.1-1.5,2.7-2.6l0,0c0.6-1.2,1-2.5,1-3.9
						l0,0c0-1.4-0.4-2.6-1.1-3.7l0,0c-0.7-1.1-1.6-1.9-2.8-2.5l0,0c-1.2-0.6-2.4-0.9-3.7-0.9l0,0C24.2,22.8,23,23.1,21.8,23.7"/>
				</defs>
				<use xlink:href="#SVGID_3_"  style="overflow:visible;"/>
				<clipPath id="SVGID_4_">
					<use xlink:href="#SVGID_3_"  style="overflow:visible;"/>
				</clipPath>
			</g>
			<g>
				<defs>
					<polygon fill="white" id="SVGID_5_" points="45.5,23.2 42.6,30.6 39.8,23.2 36.3,23.2 34,36.9 37.5,36.9 38.7,29 41.8,36.9 43.3,36.9 
						46.6,29 46.6,29 47.6,36.9 51.1,36.9 49.1,23.2 					"/>
				</defs>
				<use xlink:href="#SVGID_5_"  style="overflow:visible;"/>
				<clipPath id="SVGID_6_">
					<use xlink:href="#SVGID_5_"  style="overflow:visible;"/>
				</clipPath>
			</g>
			<g>
				<defs>
					<rect fill="white" id="SVGID_7_" x="52.7" y="23.2" width="3.6" height="13.7"/>
				</defs>
				<use xlink:href="#SVGID_7_"  style="overflow:visible;"/>
				<clipPath id="SVGID_8_">
					<use xlink:href="#SVGID_7_"  style="overflow:visible;"/>
				</clipPath>
			</g>
			<g>
				<defs>
					<polygon fill="white" id="SVGID_9_" points="69.3,20.2 66.3,25.3 63.3,20.2 57.1,20.2 63.3,29.4 55.6,39.8 61.8,39.8 66.3,33.4 70.4,39.8 
						76.5,39.8 69.3,29.4 75.6,20.2 					"/>
				</defs>
				<use xlink:href="#SVGID_9_"  style="overflow:visible;"/>
				<clipPath id="SVGID_10_">
					<use xlink:href="#SVGID_9_"  style="overflow:visible;"/>
				</clipPath>
			</g>
			<g>
				<defs>
					<path fill="white" id="SVGID_11_" d="M79.2,33.4c-0.6-0.3-1-0.8-1.3-1.4l0,0c-0.4-0.6-0.6-1.3-0.6-2.1l0,0c0-0.6,0.2-1.2,0.6-1.8l0,0
						c0.3-0.5,0.8-1,1.3-1.3l0,0c0.6-0.3,1.3-0.5,2-0.5l0,0c0.7,0,1.3,0.2,1.9,0.5l0,0c0.6,0.3,1.1,0.8,1.4,1.3l0,0
						c0.3,0.6,0.5,1.2,0.5,1.8l0,0c0,0.8-0.2,1.5-0.5,2.1l0,0c-0.3,0.7-0.8,1.1-1.4,1.4l0,0c-0.6,0.3-1.2,0.5-1.9,0.6l0,0
						C80.5,33.9,79.8,33.7,79.2,33.4 M77.5,23.7c-1.2,0.6-2.1,1.4-2.8,2.5l0,0c-0.7,1-1.1,2.3-1.1,3.7l0,0c0,1.5,0.4,2.8,1,3.9l0,0
						c0.6,1.1,1.5,2,2.6,2.6l0,0c1.1,0.6,2.4,1,3.9,1l0,0c1.5,0,2.8-0.3,3.9-1l0,0c1.1-0.6,2-1.5,2.7-2.6l0,0c0.7-1.2,1-2.5,1-3.9
						l0,0c0-1.4-0.4-2.6-1.1-3.7l0,0c-0.7-1.1-1.6-1.9-2.8-2.5l0,0c-1.1-0.6-2.4-0.9-3.7-0.9l0,0C79.9,22.8,78.6,23.1,77.5,23.7"/>
				</defs>
				<use xlink:href="#SVGID_11_"  style="overflow:visible;"/>
				<clipPath id="SVGID_12_">
					<use xlink:href="#SVGID_11_"  style="overflow:visible;"/>
				</clipPath>
			</g>
			<g>
				<defs>
					<polygon fill="white" id="SVGID_13_" points="90.4,23.2 90.4,36.9 98.3,36.9 98.3,33.9 94,33.9 94,23.2 					"/>
				</defs>
				<use xlink:href="#SVGID_13_"  style="overflow:visible;"/>
				<clipPath id="SVGID_14_">
					<use xlink:href="#SVGID_13_"  style="overflow:visible;"/>
				</clipPath>
			</g>
			<g>
				<defs>
					<path fill="white" id="SVGID_15_" d="M104.3,33.4c-0.6-0.3-1-0.8-1.3-1.4l0,0c-0.4-0.6-0.6-1.3-0.6-2.1l0,0c0-0.6,0.2-1.2,0.6-1.8l0,0
						c0.3-0.5,0.8-1,1.3-1.3l0,0c0.6-0.3,1.3-0.5,2-0.5l0,0c0.7,0,1.3,0.2,1.9,0.5l0,0c0.6,0.3,1.1,0.8,1.4,1.3l0,0
						c0.3,0.6,0.5,1.2,0.5,1.8l0,0c0,0.8-0.2,1.5-0.5,2.1l0,0c-0.3,0.7-0.8,1.1-1.4,1.4l0,0c-0.6,0.3-1.2,0.5-1.9,0.6l0,0
						C105.6,33.9,104.9,33.7,104.3,33.4 M102.6,23.7c-1.2,0.6-2.1,1.4-2.8,2.5l0,0c-0.7,1-1.1,2.3-1.1,3.7l0,0c0,1.5,0.4,2.8,1,3.9
						l0,0c0.6,1.1,1.5,2,2.6,2.6l0,0c1.1,0.6,2.4,1,3.9,1l0,0c1.5,0,2.8-0.3,3.9-1l0,0c1.1-0.6,2-1.5,2.7-2.6l0,0
						c0.6-1.2,1-2.5,1-3.9l0,0c0-1.4-0.4-2.6-1.1-3.7l0,0c-0.7-1.1-1.6-1.9-2.8-2.5l0,0c-1.1-0.6-2.4-0.9-3.7-0.9l0,0
						C105,22.8,103.7,23.1,102.6,23.7"/>
				</defs>
				<use xlink:href="#SVGID_15_"  style="overflow:visible;"/>
				<clipPath id="SVGID_16_">
					<use xlink:href="#SVGID_15_"  style="overflow:visible;"/>
				</clipPath>
			</g>
			<g>
				<defs>
					<path fill="white" id="SVGID_17_" d="M118.4,23.7c-1.1,0.6-2,1.5-2.6,2.6l0,0c-0.7,1.1-0.9,2.4-1,3.9l0,0c0,1.5,0.3,2.7,0.9,3.8l0,0
						c0.6,1.1,1.5,1.9,2.6,2.6l0,0c1.1,0.6,2.4,0.9,3.8,0.9l0,0c1.2,0,2.2-0.2,3.2-0.7l0,0c1-0.4,1.8-1.1,2.4-2.1l0,0
						c0.6-0.8,1-1.7,1.2-2.6l0,0c0.2-0.9,0.3-1.8,0.3-2.8l0,0h-7.1v2.8h2.9c-0.1,0.8-0.4,1.4-1,1.8l0,0c-0.5,0.4-1.2,0.6-1.9,0.6
						l0,0c-0.8,0-1.4-0.2-1.9-0.6l0,0c-0.6-0.4-1-1-1.2-1.6l0,0c-0.3-0.7-0.4-1.4-0.4-2.1l0,0c0-0.7,0.1-1.4,0.4-2.1l0,0
						c0.3-0.6,0.7-1.2,1.2-1.6l0,0c0.5-0.4,1.2-0.6,1.9-0.6l0,0c0.7,0,1.3,0.2,1.9,0.6l0,0c0.5,0.4,0.9,0.9,1.1,1.6l0,0l3.4-1.4
						c-0.6-1.3-1.4-2.3-2.5-2.9l0,0c-1-0.6-2.3-1-3.7-1l0,0C120.8,22.8,119.5,23.1,118.4,23.7"/>
				</defs>
				<use xlink:href="#SVGID_17_"  style="overflow:visible;"/>
				<clipPath id="SVGID_18_">
					<use xlink:href="#SVGID_17_"  style="overflow:visible;"/>
				</clipPath>
			</g>
			<g>
				<defs>
					<polygon fill="white" id="SVGID_19_" points="138.7,23.2 136.2,26.9 133.6,23.2 129.4,23.2 134.4,30.3 134.4,36.9 138,36.9 138,30.3 
						143,23.2 					"/>
				</defs>
				<use xlink:href="#SVGID_19_"  style="overflow:visible;"/>
				<clipPath id="SVGID_20_">
					<use xlink:href="#SVGID_19_"  style="overflow:visible;"/>
				</clipPath>
			</g>
			<g>
				<path fill="white" d="M143.6,22v-0.2h1V22h-0.4v1.1H144V22H143.6z M145.1,21.8l0.3,1l0.3-1h0.3v1.4h-0.2v-1.1l-0.3,1.1h-0.2l-0.3-1.1v1.1
					h-0.2v-1.4H145.1z"/>
			</g>
		</g>
	</g>
</g>
</svg>
